<svg xmlns="http://www.w3.org/2000/svg" width="354" height="74" viewBox="0 0 354 74">
  <defs>
    <linearGradient id="gold-grad" x1="0%" y1="0%" x2="100%" y2="100%">
      <stop offset="0%" stop-color="#FFDF00"/>
      <stop offset="50%" stop-color="#D4AF37"/>
      <stop offset="100%" stop-color="#FF8C00"/>
    </linearGradient>
    <filter id="shadow" x="-5%" y="-5%" width="110%" height="110%">
      <feDropShadow dx="0" dy="2" stdDeviation="3" flood-color="#000000" flood-opacity="0.3"/>
    </filter>
  </defs>

  <rect width="352" height="72" x="1" y="1" rx="8" fill="#161b22" stroke="#30363d" stroke-width="1" filter="url(#shadow)"/>

  <text x="20" y="30" font-family="-apple-system, BlinkMacSystemFont, 'Segoe UI', Roboto, Helvetica, Arial, sans-serif" font-size="14" fill="#c9d1d9" opacity="0.8">
    Sponsor of <tspan font-weight="600" fill="#ffffff">legendsayantan</tspan>?
  </text>

  <text x="20" y="52" font-family="-apple-system, BlinkMacSystemFont, 'Segoe UI', Roboto, Helvetica, Arial, sans-serif" font-size="14" fill="#c9d1d9">
    Claim your <tspan font-weight="600" fill="#ffffff">Exclusive Benefits</tspan> via
  </text>

  <g transform="translate(236, 38)">
    <rect x="2" y="7" width="12" height="8" rx="1" fill="url(#gold-grad)"/>
    <rect x="1" y="4" width="14" height="3" rx="0.5" fill="url(#gold-grad)"/>
    <rect x="7" y="4" width="2" height="11" fill="#000000" opacity="0.3"/>
    <path d="M8,4 C8,1 4,0 3,2 C2,3.5 5,4 8,4 Z" fill="url(#gold-grad)"/>
    <path d="M8,4 C8,1 12,0 13,2 C14,3.5 11,4 8,4 Z" fill="url(#gold-grad)"/>
  </g>

  <text x="256" y="52" font-family="-apple-system, BlinkMacSystemFont, 'Segoe UI', Roboto, Helvetica, Arial, sans-serif" font-size="14" font-weight="700" fill="#ffffff">
    FundWare
  </text>
</svg>
